<?xml version="1.0" standalone="no"?>
<!DOCTYPE svg PUBLIC "-//W3C//DTD SVG 20010904//EN"
 "http://www.w3.org/TR/2001/REC-SVG-20010904/DTD/svg10.dtd">
<svg version="1.0" xmlns="http://www.w3.org/2000/svg"
 width="288.000000pt" height="288.000000pt" viewBox="0 0 288.000000 288.000000"
 preserveAspectRatio="xMidYMid meet">

<g transform="translate(0.000000,288.000000) scale(0.100000,-0.100000)"
fill="#000000" stroke="none">
<path d="M1315 2214 c-11 -2 -45 -9 -75 -15 -143 -29 -307 -117 -409 -219 -59
-59 -130 -162 -162 -237 -32 -72 -70 -186 -64 -191 3 -3 22 0 42 6 21 6 42 12
48 12 5 1 19 -35 30 -79 l22 -81 -51 -37 c-65 -49 -106 -125 -106 -197 0 -99
71 -198 163 -229 36 -12 42 -19 62 -75 47 -130 155 -267 259 -327 201 -117
500 -118 684 -2 157 99 273 280 313 488 7 35 13 142 14 236 0 120 5 177 13
185 7 7 12 26 12 44 0 30 -2 32 -47 37 -43 5 -73 25 -73 49 0 11 38 10 79 -2
19 -5 37 -8 39 -5 4 4 -80 61 -101 68 -7 2 -5 19 6 46 10 23 20 75 24 116 6
82 -9 146 -54 223 -23 40 -26 42 -42 28 -16 -14 -22 -12 -71 21 -127 86 -272
133 -425 138 -60 2 -119 2 -130 -1z m405 -461 c44 -20 140 -97 140 -113 0 -4
-20 -13 -45 -20 -56 -16 -63 -26 -36 -53 20 -21 21 -21 71 -3 48 17 80 16 80
-3 0 -5 -21 -12 -47 -16 -27 -3 -76 -13 -110 -22 -58 -14 -68 -14 -157 6 -107
23 -180 20 -416 -19 -167 -27 -160 -28 -159 18 1 20 -3 66 -8 100 -9 60 -8 64
11 72 18 6 22 3 24 -19 6 -49 20 -47 67 6 36 41 54 53 92 62 98 23 172 30 308
27 116 -2 148 -6 185 -23z m-267 -301 c-6 -45 14 -72 54 -72 36 0 63 27 63 62
0 30 15 36 43 16 24 -18 6 -79 -38 -126 -31 -35 -37 -37 -94 -37 -53 0 -64 4
-88 27 -23 23 -28 38 -31 93 -4 65 -4 66 20 60 19 -5 34 -2 75 14 0 1 -1 -16
-4 -37z m525 16 c6 -7 18 -42 27 -77 21 -83 11 -96 -75 -96 -51 0 -63 4 -89
29 -17 16 -37 50 -46 75 -14 43 -14 47 2 58 24 18 46 16 39 -3 -6 -16 9 -54
28 -66 42 -29 101 11 94 62 -5 32 3 38 20 18z m-656 -67 c15 -98 47 -130 139
-138 99 -9 166 38 213 151 8 20 22 36 30 36 8 0 32 -33 53 -72 49 -92 96 -122
183 -115 30 2 63 8 73 12 15 6 17 1 17 -46 0 -78 -26 -234 -49 -303 -91 -262
-292 -408 -561 -408 -173 0 -301 50 -410 161 -67 67 -126 165 -151 249 -13 44
-40 72 -69 72 -32 0 -101 55 -120 96 -49 100 4 219 113 254 l38 12 80 -77 c43
-42 84 -75 91 -73 8 3 18 47 28 114 l15 109 100 11 c55 7 118 11 140 10 l40
-1 7 -54z"/>
<path d="M1346 1613 c-58 -39 -60 -53 -4 -34 49 17 132 13 194 -10 48 -18 60
-19 80 -8 40 21 25 42 -46 66 -100 34 -155 31 -224 -14z"/>
<path d="M1748 1267 c63 -20 111 -118 80 -160 -8 -10 -38 -27 -68 -37 l-55
-19 42 0 c83 -2 123 29 123 94 0 32 -7 51 -26 75 -31 36 -74 60 -106 59 -19
-1 -17 -3 10 -12z"/>
<path d="M770 1235 c-24 -29 12 -135 46 -135 23 0 27 25 14 80 -13 56 -40 80
-60 55z"/>
<path d="M1450 865 c-15 -19 20 -41 103 -67 122 -37 273 -15 311 44 8 13 7 21
-1 29 -9 9 -19 6 -43 -14 -17 -15 -47 -29 -67 -33 -58 -11 -167 3 -232 29 -49
20 -63 22 -71 12z"/>
</g>
</svg>
